<?xml version="1.0" encoding="iso-8859-1"?>
<!-- Generator: Adobe Illustrator 19.0.0, SVG Export Plug-In . SVG Version: 6.00 Build 0)  -->
<svg version="1.1" id="Capa_1" xmlns="http://www.w3.org/2000/svg" xmlns:xlink="http://www.w3.org/1999/xlink" x="0px" y="0px"
	 viewBox="0 0 469.333 469.333" style="enable-background:new 0 0 469.333 469.333;" xml:space="preserve">
<path style="fill:#303C42;" d="M320.854,0c-9.979,0-19.646,3.573-27.208,10.073L156.052,128H42.667C19.135,128,0,147.135,0,170.667
	v128c0,23.531,19.135,42.667,42.667,42.667h113.385L293.635,459.26c7.573,6.5,17.24,10.073,27.219,10.073
	c23.052,0,41.813-18.76,41.813-41.813V41.813C362.667,18.76,343.906,0,320.854,0z"/>
<path id="SVGCleanerId_0" style="fill:#5C6671;" d="M341.333,427.521c0,11.292-9.188,20.479-20.479,20.479
	c-4.885,0-9.625-1.75-13.333-4.927l-140.583-120.5C165.01,320.906,162.542,320,160,320H42.667c-11.76,0-21.333-9.573-21.333-21.333
	v-128c0-11.76,9.573-21.333,21.333-21.333H160c2.542,0,5.01-0.906,6.938-2.573l140.594-120.5c3.698-3.177,8.438-4.927,13.323-4.927
	c11.292,0,20.479,9.188,20.479,20.479V427.521z"/>
<g>
	<path id="SVGCleanerId_0_1_" style="fill:#5C6671;" d="M341.333,427.521c0,11.292-9.188,20.479-20.479,20.479
		c-4.885,0-9.625-1.75-13.333-4.927l-140.583-120.5C165.01,320.906,162.542,320,160,320H42.667c-11.76,0-21.333-9.573-21.333-21.333
		v-128c0-11.76,9.573-21.333,21.333-21.333H160c2.542,0,5.01-0.906,6.938-2.573l140.594-120.5c3.698-3.177,8.438-4.927,13.323-4.927
		c11.292,0,20.479,9.188,20.479,20.479V427.521z"/>
</g>
<path style="opacity:0.1;enable-background:new    ;" d="M320.854,405.333c-4.885,0-9.625-1.75-13.333-4.927l-140.583-120.5
	c-1.927-1.667-4.396-2.573-6.938-2.573H42.667c-11.76,0-21.333-9.573-21.333-21.333v42.667c0,11.76,9.573,21.333,21.333,21.333H160
	c2.542,0,5.01,0.906,6.938,2.573l140.583,120.5c3.708,3.177,8.448,4.927,13.333,4.927c11.292,0,20.479-9.188,20.479-20.479v-42.667
	C341.333,396.146,332.146,405.333,320.854,405.333z"/>
<path style="opacity:0.2;fill:#FFFFFF;enable-background:new    ;" d="M320.854,21.333c-4.885,0-9.625,1.75-13.323,4.927
	l-140.594,120.5c-1.927,1.667-4.396,2.573-6.938,2.573H42.667c-11.76,0-21.333,9.573-21.333,21.333v42.667
	c0-11.76,9.573-21.333,21.333-21.333H160c2.542,0,5.01-0.906,6.938-2.573l140.594-120.5C311.229,65.75,315.969,64,320.854,64
	c11.292,0,20.479,9.188,20.479,20.479V41.813C341.333,30.521,332.146,21.333,320.854,21.333z"/>
<path style="fill:#303C42;" d="M399.083,234.667l67.125-67.125c4.167-4.167,4.167-10.917,0-15.083
	c-4.167-4.167-10.917-4.167-15.083,0L384,219.583l-67.125-67.125c-4.167-4.167-10.917-4.167-15.083,0
	c-4.167,4.167-4.167,10.917,0,15.083l67.125,67.125l-67.125,67.125c-4.167,4.167-4.167,10.917,0,15.083
	c2.083,2.083,4.813,3.125,7.542,3.125s5.458-1.042,7.542-3.125L384,249.75l67.125,67.125c2.083,2.083,4.813,3.125,7.542,3.125
	c2.729,0,5.458-1.042,7.542-3.125c4.167-4.167,4.167-10.917,0-15.083L399.083,234.667z"/>
<linearGradient id="SVGID_1_" gradientUnits="userSpaceOnUse" x1="-65.6848" y1="619.4924" x2="-44.9132" y2="609.8041" gradientTransform="matrix(21.3333 0 0 -21.3333 1430.1112 13315.2227)">
	<stop  offset="0" style="stop-color:#FFFFFF;stop-opacity:0.2"/>
	<stop  offset="1" style="stop-color:#FFFFFF;stop-opacity:0"/>
</linearGradient>
<path style="fill:url(#SVGID_1_);" d="M399.083,234.667l67.125-67.125c4.167-4.167,4.167-10.917,0-15.083
	c-4.167-4.167-10.917-4.167-15.083,0L384,219.583l-21.333-21.333V41.813C362.667,18.76,343.906,0,320.854,0
	c-9.979,0-19.646,3.573-27.208,10.073L156.052,128H42.667C19.135,128,0,147.135,0,170.667v128c0,23.531,19.135,42.667,42.667,42.667
	h113.385L293.635,459.26c7.573,6.5,17.24,10.073,27.219,10.073c23.052,0,41.813-18.76,41.813-41.813V271.083L384,249.75
	l67.125,67.125c2.083,2.083,4.813,3.125,7.542,3.125c2.729,0,5.458-1.042,7.542-3.125c4.167-4.167,4.167-10.917,0-15.083
	L399.083,234.667z M362.667,240.917v-12.5l6.25,6.25L362.667,240.917z"/>
<g>
</g>
<g>
</g>
<g>
</g>
<g>
</g>
<g>
</g>
<g>
</g>
<g>
</g>
<g>
</g>
<g>
</g>
<g>
</g>
<g>
</g>
<g>
</g>
<g>
</g>
<g>
</g>
<g>
</g>
</svg>
